# xmcd
#
# Track frame offsets:
#   150
#   17801
#   25307
#   29704
#   54234
#   67569
#   83400
#   91261
#   109596
#   120517
#
# Disc length: 1797 seconds
#
# Revision: 0
# Processed by: cddbd v1.4PL0 Copyright (c) Steve Scherf et al.
# Submitted via: uFREEDB 1.6.0
#
DISCID=6a07030a
DTITLE=Almir Sater - Instrumental
DYEAR=1985
DGENRE=Country
TTITLE0=Corumbá
TTITLE1=Minas Gerais
TTITLE2=Vinheta do Capeta
TTITLE3=Luzeiro
TTITLE4=Benzinho
TTITLE5=O rio de piracicaba
TTITLE6=Na piratininga: de Jeep
TTITLE7=Doma
TTITLE8=Viola de Buriti
TTITLE9=E de minas pra riba
EXTD=
EXTT0=
EXTT1=
EXTT2=
EXTT3=
EXTT4=
EXTT5=
EXTT6=
EXTT7=
EXTT8=
EXTT9=
PLAYORDER=
